<svg xmlns="http://www.w3.org/2000/svg" xmlns:xlink="http://www.w3.org/1999/xlink" width="189" zoomAndPan="magnify" viewBox="0 0 141.75 141.749996" height="189" preserveAspectRatio="xMidYMid meet" version="1.0"><path fill="#000000" d="M 59.535156 8.503906 C 32.945312 8.503906 11.339844 30.109375 11.339844 56.699219 C 11.339844 83.289062 32.945312 104.894531 59.535156 104.894531 C 70.054688 104.894531 79.777344 101.507812 87.707031 95.769531 L 125.003906 132.980469 L 132.980469 125.003906 L 96.125 88.0625 C 103.367188 79.625 107.730469 68.671875 107.730469 56.699219 C 107.730469 30.109375 86.125 8.503906 59.535156 8.503906 Z M 59.535156 14.175781 C 83.054688 14.175781 102.058594 33.179688 102.058594 56.699219 C 102.058594 80.222656 83.054688 99.226562 59.535156 99.226562 C 36.011719 99.226562 17.011719 80.222656 17.011719 56.699219 C 17.011719 33.179688 36.011719 14.175781 59.535156 14.175781 Z M 59.535156 14.175781 " fill-opacity="1" fill-rule="nonzero"/></svg>